<svg width="56" height="32" viewBox="0 0 56 32" fill="none" xmlns="http://www.w3.org/2000/svg">
    <g clip-path="url(#clip0_5_128349)">
        <path d="M48.8578 28.7583C47.9491 28.6369 46.493 28.5734 44.6474 28.5329C33.5061 28.3133 8.46353 29.2783 8.46353 29.2783L7.22184 27.5853L7.04688 27.3542C7.46227 26.0232 7.68476 24.6371 7.70723 23.24C7.70723 23.0551 7.70723 22.8625 7.70723 22.6622C7.72072 21.3759 7.63011 20.0907 7.43631 18.8197C8.23054 19.9103 9.10207 20.9397 10.0439 21.8995C10.3656 22.2288 10.7098 22.5582 11.0654 22.876C14.4462 25.8749 19.1872 27.7355 20.5474 16.6702C20.5756 16.4852 20.5982 16.2888 20.6151 16.0923C20.6998 15.318 20.7675 14.4975 20.8239 13.6135C20.6864 13.5965 20.5545 13.5469 20.4389 13.4687C20.3233 13.3904 20.2271 13.2857 20.1579 13.1628C20.0584 12.9875 20.0076 12.7876 20.0112 12.5849C20.0046 12.384 20.0494 12.1849 20.141 12.0071C20.1934 11.9204 20.2539 11.8391 20.3216 11.7644C20.4764 11.6268 20.6754 11.5527 20.8804 11.5564C21.129 11.5742 21.3607 11.6915 21.5255 11.8829C21.6903 12.0743 21.7748 12.3244 21.7608 12.5791C21.7591 12.84 21.6671 13.0918 21.5012 13.2899C21.4313 13.3912 21.3357 13.4712 21.2247 13.521C21.3206 13.7579 21.4335 14.0179 21.5577 14.3068C21.8004 14.8442 22.1221 15.4625 22.4607 16.127C24.9836 20.8536 30.1196 27.4119 34.7252 16.387C34.838 16.1154 34.9509 15.8092 35.0638 15.5434C35.3234 14.8558 35.5831 14.1104 35.8427 13.3014C35.669 13.2164 35.5233 13.0816 35.4231 12.9134C35.3229 12.7452 35.2726 12.5507 35.2783 12.3538C35.2751 12.188 35.3099 12.0238 35.3799 11.8742C35.4678 11.6631 35.6285 11.4924 35.8314 11.3946C35.928 11.346 36.0341 11.3203 36.1418 11.3195C36.2184 11.3188 36.2946 11.3305 36.3676 11.3542C36.5347 11.4228 36.682 11.5339 36.7956 11.6769C36.9092 11.8199 36.9854 11.9901 37.017 12.1716C37.0487 12.3531 37.0346 12.5398 36.9763 12.7142C36.918 12.8886 36.8173 13.045 36.6836 13.1685C36.5861 13.254 36.4729 13.3188 36.3506 13.3592C36.4127 13.5846 36.4805 13.8619 36.5595 14.1624C36.7119 14.7402 36.9038 15.3758 37.1239 16.075C38.597 20.6225 41.5996 27.1924 45.2287 22.6218C45.5162 22.2545 45.7802 21.8684 46.0189 21.4661C46.6419 20.3749 47.1798 19.2349 47.6274 18.0569C47.5528 19.1053 47.5528 20.1578 47.6274 21.2061C47.6274 21.7435 47.6951 22.3097 47.7403 22.8933C47.8362 23.9797 47.9548 25.1006 48.1241 26.1003C48.1579 26.3372 48.2031 26.5799 48.2482 26.7994C48.3643 27.4775 48.5693 28.1364 48.8578 28.7583Z"
              fill="url(#paint0_linear_5_128349)"/>
        <g style="mix-blend-mode:color-burn" opacity="0.3">
            <path d="M36.375 11.36C36.571 11.4362 36.7391 11.5727 36.8563 11.7506C36.9735 11.9286 37.0341 12.1393 37.0297 12.3538C37.0334 12.5071 37.0046 12.6593 36.9451 12.8C36.8857 12.9407 36.7971 13.0664 36.6854 13.1686C36.7475 12.4001 36.6854 11.6142 36.375 11.36Z"
                  fill="#6E6E6E"/>
        </g>
        <g style="mix-blend-mode:color-burn" opacity="0.3">
            <path d="M48.1428 26.0945C47.9559 26.415 47.7425 26.7185 47.505 27.0016C46.7407 27.816 45.7382 28.3535 44.6491 28.5329C33.5078 28.3133 8.46526 29.2783 8.46526 29.2783L7.04297 27.3541C7.50789 25.8382 7.73646 24.2567 7.72025 22.668C8.13753 22.7247 8.56192 22.6851 8.96232 22.5521C9.36272 22.4191 9.72899 22.1961 10.0343 21.8994C13.4546 25.3664 19.2002 29.024 20.6168 16.1212C20.9519 15.7173 21.231 15.2682 21.4465 14.7864C21.5075 14.6422 21.5401 14.4871 21.5425 14.3299C23.563 18.7907 29.7207 29.4227 35.0543 15.5665C35.3117 15.5894 35.5703 15.5389 35.8014 15.4206C36.0325 15.3023 36.2271 15.1208 36.3637 14.8962C36.4375 14.6553 36.4978 14.4103 36.5443 14.1624C37.7577 18.5827 41.1498 29.6192 45.7158 21.9572C46.1255 21.9401 46.5222 21.8054 46.8606 21.5683C47.1989 21.3312 47.4653 21.0014 47.6291 20.6167C47.7025 22.1595 47.8831 24.5632 48.1428 26.0945Z"
                  fill="#6E6E6E"/>
        </g>
        <path d="M48.8633 28.7583C49.1342 29.2841 49.4277 29.4864 49.8341 29.1859C50.0655 29.001 49.693 28.8912 48.8633 28.7583Z"
              fill="#D18B22"/>
        <path d="M55.998 15.8901C56.0231 16.2038 55.9264 16.5151 55.7288 16.7563C55.5313 16.9975 55.2488 17.1493 54.9426 17.1786H54.8354C54.6777 17.1596 54.5267 17.1021 54.3951 17.0111C54.3666 16.9951 54.3401 16.9757 54.3161 16.9533C53.4286 18.8698 52.7272 20.871 52.2222 22.928C51.7707 24.6615 51.4772 26.2563 51.3079 27.2559C51.1893 27.9435 51.1329 28.3538 51.1329 28.3538C51.1303 28.267 51.1087 28.182 51.0696 28.1049C51.0305 28.0279 50.975 27.9609 50.9071 27.9089C50.4958 27.5596 50.0168 27.3036 49.5018 27.1577C49.197 27.0479 48.8527 26.9439 48.4633 26.8457H48.3786C48.3396 26.8395 48.3016 26.8278 48.2657 26.811C47.8819 26.7185 47.4586 26.6319 46.9958 26.5394L46.5951 26.4701L45.6356 26.3083C44.3883 26.1176 42.9547 25.9558 41.3857 25.8171C41.0583 25.7825 40.731 25.7593 40.3923 25.7305L39.8731 25.6958L39.3087 25.6553L38.2476 25.5918L37.5364 25.5571L36.8084 25.5167C36.1367 25.5167 35.4481 25.4647 34.7426 25.4473H34.4887H33.6872H32.2819H31.6779C30.4871 25.4473 29.2736 25.4473 28.0319 25.4473C27.97 25.4414 27.9076 25.4414 27.8456 25.4473L25.9041 25.4242C24.6775 25.4589 23.4828 25.507 22.3202 25.5687L21.0164 25.6438L20.2319 25.69L19.707 25.7305L18.7249 25.8056C18.4709 25.8056 18.2169 25.8402 17.9686 25.8691H17.8106L16.5407 26.002L15.4119 26.1176L14.3451 26.2447H14.2943C13.7695 26.3083 13.2671 26.3718 12.7818 26.4412L12.4092 26.499L11.6304 26.6145C10.2419 26.8399 9.03412 27.0883 8.04077 27.3541C7.8263 27.4061 7.62311 27.4639 7.42557 27.5275L7.23368 27.5853L6.86682 27.7124C6.77832 27.7371 6.69158 27.768 6.60719 27.8048L6.37579 27.9031C6.23048 27.9564 6.08903 28.0201 5.95248 28.0938C5.68993 28.2125 5.44935 28.3767 5.24134 28.5791C5.17564 28.6353 5.12213 28.705 5.08422 28.7836C5.04632 28.8622 5.02486 28.948 5.02122 29.0356C5.02122 28.9721 4.93092 28.4578 4.77853 27.6777C4.62614 26.8977 4.36651 25.7247 4.03916 24.4535C3.46929 22.1734 2.66524 19.9614 1.64045 17.8547C1.62986 17.8381 1.62043 17.8207 1.61223 17.8027C1.4607 17.9243 1.27422 17.9913 1.08169 17.9934C0.779264 17.9725 0.496737 17.8316 0.294316 17.6006C0.091895 17.3697 -0.0144151 17.0669 -0.00196033 16.7568C-0.0179287 16.4698 0.06477 16.186 0.231785 15.9549C0.3988 15.7237 0.63959 15.5598 0.912371 15.4914C0.959243 15.4857 1.0066 15.4857 1.05347 15.4914H1.17764C1.44995 15.5325 1.69539 15.682 1.86057 15.9074C2.03771 16.1471 2.13469 16.4389 2.13712 16.7395C2.14319 17.0593 2.04155 17.3715 1.84928 17.6236C4.05045 20.27 5.99764 22.3675 7.69649 23.2516C8.97204 23.9219 10.0952 23.8987 11.0547 22.8875L11.1506 22.7893C12.4149 21.3794 13.3744 18.2938 14.046 12.8854C14.8162 13.7824 15.6921 14.5782 16.6536 15.2545C17.3929 15.7875 18.2101 16.197 19.0748 16.4679C19.5533 16.6099 20.0498 16.6781 20.5479 16.6701C20.7713 16.669 20.9942 16.6478 21.2139 16.6066C21.6503 16.5373 22.0721 16.3927 22.4613 16.179C24.1545 15.2314 25.7122 12.8507 26.7507 7.97386C27.1084 6.23516 27.3741 4.47793 27.5465 2.70987C27.543 2.65793 27.543 2.6058 27.5465 2.55385C27.2896 2.47584 27.0653 2.31258 26.909 2.08976C26.7527 1.86695 26.6732 1.59724 26.683 1.32309C26.6732 1.12139 26.7088 0.920095 26.7871 0.734742C26.8654 0.549389 26.9843 0.384943 27.1345 0.254107C27.3024 0.0916534 27.5244 0.000744742 27.7553 -0.000135912C27.9376 -0.00533598 28.1169 0.0471265 28.269 0.150099C28.4454 0.271367 28.5894 0.435841 28.688 0.628579C28.7865 0.821318 28.8365 1.03621 28.8334 1.25375C28.8432 1.45265 28.8087 1.65124 28.7324 1.83446C28.6561 2.01767 28.5401 2.1807 28.3931 2.31117C28.2808 2.4161 28.1452 2.49146 27.998 2.53074C28.0004 2.57115 28.0004 2.61167 27.998 2.65209C29.2623 12.8565 31.9996 16.075 34.7088 16.4332C35.5213 16.531 36.3448 16.4157 37.1018 16.0981C39.5288 15.162 41.4985 12.7814 41.7017 12.5098C42.5653 18.4441 43.7336 21.547 45.1897 22.668C45.5446 22.9503 45.9697 23.1249 46.4168 23.1719C46.8638 23.2189 47.3148 23.1364 47.7183 22.9338C49.5356 22.1942 51.6691 19.8135 54.0678 16.7626C53.9146 16.53 53.8304 16.2572 53.8251 15.9768C53.814 15.8866 53.814 15.7953 53.8251 15.7052C53.865 15.4262 53.9963 15.1695 54.1976 14.9771C54.2827 14.8876 54.3845 14.8164 54.497 14.7678C54.6094 14.7191 54.7302 14.694 54.8523 14.694H54.9482C54.9819 14.6889 55.0162 14.6889 55.0498 14.694C55.3182 14.7512 55.5591 14.9014 55.7318 15.1193C55.9046 15.3372 55.9986 15.6094 55.998 15.8901Z"
              fill="url(#paint1_linear_5_128349)"/>
        <g style="mix-blend-mode:color-burn" opacity="0.1">
            <path d="M52.2113 22.9107C51.7598 24.6442 51.4663 26.239 51.2913 27.2386C49.8199 26.5293 48.2802 25.9793 46.6971 25.5976C42.2722 24.8002 35.4599 24.4419 28.021 24.5286C19.7808 24.6499 8.97246 26.0656 4.76766 27.6777C4.59834 26.863 4.35565 25.7305 4.02829 24.4592C4.17186 23.2961 4.07573 22.1151 3.74609 20.9923C5.89647 23.3036 7.69691 24.6153 9.35625 24.5864C11.9243 24.5517 13.5441 21.4546 14.5488 14.6015C15.8243 15.8323 18.1045 17.6005 20.5427 17.5658C24.1605 17.508 26.6044 13.6944 27.8235 6.21729C29.195 13.6192 31.7235 17.3635 35.3413 17.3347C37.7626 17.2942 40.0202 15.4452 41.2676 14.1797C42.3964 21.0039 44.0896 24.0548 46.6858 24.0028C48.3395 24.0028 50.0722 22.5986 52.2057 20.2469C51.9918 21.1216 51.9937 22.037 52.2113 22.9107Z"
                  fill="#6E6E6E"/>
        </g>
        <path d="M50.892 27.8915C49.3455 29.5094 39.7281 30.8846 28.0901 31.0637C16.4522 31.2429 6.81781 30.1508 5.23184 28.5791C5.1664 28.6355 5.11307 28.7052 5.07519 28.7838C5.03731 28.8623 5.0157 28.9481 5.01172 29.0356C5.01172 30.8557 15.3741 32.1732 28.1014 31.9767C40.8287 31.7802 51.146 30.1566 51.1234 28.3364C51.1202 28.2492 51.0976 28.1638 51.0576 28.0867C51.0175 28.0097 50.9609 27.9429 50.892 27.8915Z"
              fill="url(#paint2_linear_5_128349)"/>
        <path d="M50.8906 27.8916C49.3441 29.5095 39.7267 30.8847 28.0888 31.0638C16.4508 31.243 6.81644 30.1509 5.23047 28.5792C5.73279 28.0476 7.093 27.5449 9.10227 27.1C13.2563 26.1754 20.1815 25.5052 28.0323 25.3665C35.8832 25.2278 42.8197 25.7016 46.9906 26.5221C49.0055 26.9093 50.377 27.3715 50.8906 27.8916Z"
              fill="url(#paint3_linear_5_128349)"/>
        <g style="mix-blend-mode:color-burn" opacity="0.2">
            <path d="M46.9899 26.5221C42.8359 27.4408 35.9107 28.1053 28.0598 28.2555C20.209 28.4058 13.2725 27.9204 9.10156 27.0999C13.2556 26.1754 20.1808 25.5051 28.0316 25.3664C35.8825 25.2277 42.819 25.7247 46.9899 26.5221Z"
                  fill="#6E6E6E"/>
        </g>
        <g style="mix-blend-mode:color-burn" opacity="0.3">
            <path d="M51.2708 27.3888C51.274 27.4176 51.274 27.4467 51.2708 27.4755C51.1805 28.0186 51.141 28.3422 51.141 28.3422C51.1386 28.254 51.1165 28.1675 51.0764 28.0893C51.0363 28.0112 50.9792 27.9435 50.9096 27.8915C49.3292 26.2967 39.6836 25.2104 28.0513 25.3895C16.4189 25.5686 6.77331 26.9439 5.23249 28.5791C5.16555 28.6355 5.11124 28.7059 5.07326 28.7857C5.03528 28.8655 5.01451 28.9527 5.01237 29.0414C5.01237 29.0414 4.95593 28.712 4.85434 28.1457C4.8516 28.115 4.8516 28.084 4.85434 28.0533C4.85064 28.0323 4.85064 28.0107 4.85434 27.9897C5.05752 27.7124 5.2212 27.4697 5.24378 27.4523C6.77331 25.8113 16.3681 24.4361 28.0174 24.2685C39.6667 24.101 49.2954 25.1757 50.8813 26.7647C50.9765 26.8746 51.0598 26.9947 51.1297 27.123C51.1805 27.2039 51.2256 27.2963 51.2708 27.3888Z"
                  fill="#8F8F8F"/>
        </g>
        <g style="mix-blend-mode:color-burn" opacity="0.4">
            <path d="M1.84975 17.5946C1.77638 17.6697 1.70865 17.7622 1.62963 17.8373C1.62751 17.82 1.62751 17.8026 1.62963 17.7853C1.4677 17.9118 1.26892 17.979 1.06523 17.976C0.769369 17.9496 0.494416 17.8089 0.296269 17.5824C0.0981215 17.356 -0.00834604 17.0607 -0.00148927 16.7568C-0.0194545 16.4684 0.0631719 16.183 0.231662 15.9512C0.400152 15.7194 0.643556 15.5565 0.918486 15.4913C0.732234 16.4736 0.630641 17.9587 2.1376 16.7221C2.13845 17.0375 2.03723 17.3443 1.84975 17.5946Z"
                  fill="#6E6E6E"/>
        </g>
        <g style="mix-blend-mode:color-burn" opacity="0.1">
            <path d="M55.1115 14.6652C55.4389 15.5897 55.6759 16.9187 53.8868 15.6475C53.8759 15.7396 53.8759 15.8327 53.8868 15.9248C53.8922 16.2034 53.9765 16.4744 54.1295 16.7049L54.248 16.8262C52.7138 19.4016 50.9368 21.8169 48.9426 24.0375C48.5024 24.5286 48.8579 25.3665 40.4766 24.6153C48.1581 25.667 47.8138 26.7128 46.606 26.4759C48.8636 26.8631 50.3592 27.36 50.9067 27.9147C50.9763 27.9668 51.0334 28.0344 51.0735 28.1126C51.1136 28.1907 51.1357 28.2772 51.1381 28.3654C51.1381 28.3654 52.0412 21.5817 54.327 16.9591C54.3465 16.9842 54.3717 17.0041 54.4004 17.0169C54.474 17.0676 54.5536 17.1084 54.6374 17.1383H54.7221H54.8406C54.8782 17.1411 54.9159 17.1411 54.9535 17.1383C55.258 17.1074 55.5387 16.9561 55.7359 16.7165C55.933 16.4769 56.031 16.168 56.0089 15.8555C56.0108 15.5829 55.9235 15.3176 55.7608 15.1018C55.5981 14.8861 55.3695 14.7323 55.1115 14.6652Z"
                  fill="#6E6E6E"/>
        </g>
        <g style="mix-blend-mode:color-burn" opacity="0.3">
            <path d="M20.3164 11.8049C20.3893 11.7267 20.4769 11.6644 20.5739 11.6217C20.6708 11.579 20.7752 11.5568 20.8808 11.5564C21.1294 11.5742 21.3611 11.6915 21.5259 11.8829C21.6907 12.0743 21.7752 12.3244 21.7613 12.5791C21.7616 12.8394 21.6716 13.0913 21.5073 13.2899C21.496 13.1916 21.4452 11.7933 20.3164 11.8049Z"
                  fill="#6E6E6E"/>
        </g>
        <g style="mix-blend-mode:color-burn" opacity="0.2">
            <path d="M41.7236 12.4867C39.2795 16.122 37.6509 20.2657 36.9544 24.621C36.9092 24.9157 36.8697 25.1989 36.8302 25.482C34.1211 25.3664 31.1523 25.326 28.0312 25.3664C27.9692 25.3605 27.9069 25.3605 27.8449 25.3664C27.9409 25.0891 28.0425 24.7886 28.1441 24.4997C28.3698 23.8005 28.6069 23.0378 28.8496 22.1884C30.0969 17.7449 28.6182 12.7467 27.2297 9.13529C27.0661 8.71348 26.908 8.30322 26.75 7.92186C27.1077 6.18315 27.3734 4.42593 27.5458 2.65786C27.7377 2.24761 27.8957 1.7969 28.0651 1.38665C28.4206 0.525686 27.653 0.306112 27.1338 0.254107C27.3017 0.0916534 27.5236 0.000744742 27.7546 -0.000135912C27.9369 -0.00533598 28.1162 0.0471265 28.2682 0.150099C28.4447 0.271367 28.5887 0.435841 28.6873 0.628579C28.7858 0.821318 28.8358 1.03621 28.8326 1.25375C28.8425 1.45265 28.808 1.65124 28.7317 1.83446C28.6554 2.01767 28.5394 2.1807 28.3924 2.31117C28.2801 2.4161 28.1445 2.49146 27.9973 2.53074C27.9997 2.57115 27.9997 2.61167 27.9973 2.65209C30.8645 25.6322 41.2326 13.1223 41.7236 12.4867Z"
                  fill="#6E6E6E"/>
        </g>
        <path style="mix-blend-mode:soft-light" opacity="0.8"
              d="M17.9538 25.8691H17.7958L16.5428 26.002L15.414 26.1176L14.3473 26.2447H14.2965C13.7716 26.3083 13.2693 26.3718 12.7839 26.4412L12.4114 26.499L11.6325 26.6145C11.6325 26.6145 10.9665 26.0829 11.4971 25.5109L11.2882 23.7774L11.1641 22.7546C12.417 21.3794 13.3765 18.2938 14.0482 12.8854C14.8183 13.7824 15.6942 14.5782 16.6557 15.2545L16.7799 16.3292L17.8184 24.7539C17.8184 24.7539 17.1806 25.2971 17.9538 25.8691Z"
              fill="url(#paint4_linear_5_128349)"/>
        <path style="mix-blend-mode:soft-light" opacity="0.8"
              d="M22.3195 25.5744L21.0158 25.6495L20.2312 25.6958C20.1339 25.6464 20.0499 25.5732 19.9868 25.4827C19.9237 25.3922 19.8834 25.2871 19.8694 25.1768C19.8555 25.0665 19.8683 24.9544 19.9068 24.8504C19.9453 24.7464 20.0083 24.6537 20.0901 24.5806C20.0337 24.2685 19.1871 17.3809 19.1871 17.3809L19.0742 16.4679C19.7675 16.6809 20.4993 16.7283 21.2133 16.6066L21.3205 17.4618L22.1784 24.4535C21.6253 24.9562 22.3195 25.5744 22.3195 25.5744Z"
              fill="url(#paint5_linear_5_128349)"/>
        <g style="mix-blend-mode:soft-light" opacity="0.5">
            <path d="M27.7745 1.02843C27.7745 1.36357 27.5996 1.63514 27.3795 1.63514C27.1593 1.63514 26.9844 1.36357 26.9844 1.05732C26.9844 0.75107 27.1593 0.479492 27.3795 0.479492C27.5996 0.479492 27.7745 0.693288 27.7745 1.02843Z"
                  fill="white"/>
        </g>
        <g style="mix-blend-mode:soft-light" opacity="0.5">
            <path d="M20.4018 12.6081C20.4138 12.7177 20.3977 12.8286 20.3551 12.9299C20.3126 13.0312 20.245 13.1194 20.1591 13.1859C20.0595 13.0107 20.0088 12.8108 20.0123 12.6081C20.0058 12.4072 20.0505 12.208 20.1422 12.0303C20.2359 12.09 20.3105 12.1766 20.3566 12.2793C20.4028 12.382 20.4185 12.4963 20.4018 12.6081Z"
                  fill="white"/>
        </g>
        <g style="mix-blend-mode:soft-light" opacity="0.5">
            <path d="M55.0124 14.6477C55.0124 14.9829 54.8318 15.2545 54.6116 15.2545C54.3915 15.2545 54.3182 15.1158 54.2617 14.9078C54.3469 14.8182 54.4487 14.747 54.5611 14.6984C54.6735 14.6498 54.7944 14.6247 54.9164 14.6246L55.0124 14.6477Z"
                  fill="white"/>
        </g>
        <g style="mix-blend-mode:soft-light" opacity="0.5">
            <path d="M36.1731 12.0013C36.1731 12.3422 35.9981 12.608 35.778 12.608C35.5579 12.608 35.3773 12.3422 35.3773 12.0013C35.3742 11.9667 35.3742 11.9319 35.3773 11.8973C35.4653 11.6862 35.626 11.5155 35.8288 11.4177C36.032 11.4466 36.1731 11.7009 36.1731 12.0013Z"
                  fill="white"/>
        </g>
        <g style="mix-blend-mode:soft-light" opacity="0.5">
            <path d="M1.86249 15.8786C1.86249 16.2137 1.68752 16.4564 1.46741 16.4564C1.24729 16.4564 1.06668 16.1906 1.06668 15.8786C1.0627 15.7314 1.10203 15.5865 1.17956 15.4625C1.45187 15.5036 1.69731 15.6531 1.86249 15.8786Z"
                  fill="white"/>
        </g>
    </g>
    <defs>
        <linearGradient id="paint0_linear_5_128349" x1="7.04688" y1="20.3047" x2="48.8578" y2="20.3047"
                        gradientUnits="userSpaceOnUse">
            <stop stop-color="#FFA91F"/>
            <stop offset="1" stop-color="#FF8C2E"/>
        </linearGradient>
        <linearGradient id="paint1_linear_5_128349" x1="-0.00196033" y1="14.5149" x2="55.998" y2="14.5149"
                        gradientUnits="userSpaceOnUse">
            <stop stop-color="#FFD945"/>
            <stop offset="1" stop-color="#FF9D09"/>
        </linearGradient>
        <linearGradient id="paint2_linear_5_128349" x1="5.02726" y1="30.3853" x2="51.1412" y2="29.8114"
                        gradientUnits="userSpaceOnUse">
            <stop offset="0.17" stop-color="#FFC420"/>
            <stop offset="1" stop-color="#FFB820"/>
        </linearGradient>
        <linearGradient id="paint3_linear_5_128349" x1="5.22848" y1="28.522" x2="50.8909" y2="27.9537"
                        gradientUnits="userSpaceOnUse">
            <stop stop-color="#FFA81D"/>
            <stop offset="1" stop-color="#FF671B"/>
        </linearGradient>
        <linearGradient id="paint4_linear_5_128349" x1="13.1508" y1="14.249" x2="14.8353" y2="26.7372"
                        gradientUnits="userSpaceOnUse">
            <stop stop-color="white"/>
            <stop offset="1" stop-color="white"/>
        </linearGradient>
        <linearGradient id="paint5_linear_5_128349" x1="19.5596" y1="13.3765" x2="21.2383" y2="25.83"
                        gradientUnits="userSpaceOnUse">
            <stop stop-color="white"/>
            <stop offset="1" stop-color="white"/>
        </linearGradient>
        <clipPath id="clip0_5_128349">
            <rect width="56" height="32" fill="white"/>
        </clipPath>
    </defs>
</svg>
